<svg width="100" height="100" viewBox="0 0 100 100" fill="none" xmlns="http://www.w3.org/2000/svg">
<g clip-path="url(#clip0_365_2)">
<path d="M98.6836 52.9212C98.6836 55.231 97.9128 57.269 96.3712 59.0353L91.6839 64.1304C90.1006 65.8514 88.2049 66.712 85.9966 66.712C83.7467 66.712 81.8718 65.8514 80.3718 64.1304L61.9976 44.2255V92.0516C61.9976 94.4067 61.2164 96.3202 59.6539 97.7921C58.0915 99.264 56.2061 100 53.9979 100H45.9982C43.79 100 41.9046 99.264 40.3422 97.7921C38.7798 96.3202 37.9985 94.4067 37.9985 92.0516V44.2255L19.6243 64.1304C18.1243 65.8514 16.2494 66.712 13.9995 66.712C11.7496 66.712 9.87466 65.8514 8.37472 64.1304L3.68741 59.0353C2.10414 57.3143 1.3125 55.2763 1.3125 52.9212C1.3125 50.5208 2.10414 48.4601 3.68741 46.7391L44.3733 2.51359C45.8316 0.837862 47.7065 0 49.9981 0C52.248 0 54.1437 0.837862 55.6853 2.51359L96.3712 46.7391C97.9128 48.5054 98.6836 50.5661 98.6836 52.9212Z" fill="white"/>
</g>
<defs>
<clipPath id="clip0_365_2">
<rect width="100" height="100" fill="white"/>
</clipPath>
</defs>
</svg>
