<svg width="100" height="100" viewBox="0 0 100 100" fill="none" xmlns="http://www.w3.org/2000/svg">
<g clip-path="url(#clip0_366_2)">
<rect width="100" height="100" fill="#F3F1E5"/>
<path d="M104 7.19938C104 3.08536 100.66 -0.27288 96.5612 0.017522C71.5485 1.81035 48.0189 12.5548 30.2826 30.2826C12.5548 48.0189 1.81035 71.5485 0.017522 96.5612C-0.27288 100.66 3.08536 104 7.19938 104C7.19938 104 9.47047 104.067 10.9225 104C18.3687 72.3536 20.7515 59.36 38.1756 41.8987C55.6369 24.4373 79.7998 14.6456 104 10.9225V7.19938Z" fill="#F8312F"/>
<path d="M103.999 22.0931V10.9238C91.7754 10.9216 79.6707 13.3272 68.3765 18.0033C57.0823 22.6794 46.8198 29.5344 38.175 38.1769C20.7351 55.6456 10.9344 79.3173 10.9219 104.001H22.0912C25.8143 89.1089 34.4519 65.1694 49.791 49.793C65.1302 34.4538 79.7992 27.6778 103.999 22.0931Z" fill="#FFB02E"/>
<path d="M103.998 22.0918V33.2611C85.3826 35.1227 70.9369 44.4304 57.6827 57.6846C44.4284 70.9761 36.9822 85.3845 33.2591 104H22.0898C22.0898 82.2943 30.7274 61.445 46.0666 46.0686C61.4353 30.7129 82.2727 22.0887 103.998 22.0918Z" fill="#FFF478"/>
<path d="M65.6155 65.6155C54.4462 76.7848 48.1541 89.1082 44.431 104.001H33.2617C33.2617 85.2362 40.7079 67.2536 53.9622 53.9622C67.2164 40.7079 85.2362 33.2617 104.001 33.2617V44.431C87.2467 48.1541 76.7848 54.4462 65.6155 65.6155Z" fill="#00D26A"/>
<path d="M104.003 55.599V44.4297C88.2173 44.4297 73.0642 50.7217 61.8949 61.891C50.7256 73.0603 44.4336 88.2134 44.4336 103.999H55.6029C55.6029 91.1546 60.7035 78.8311 69.7879 69.784C78.8723 60.6996 91.1957 55.599 104.003 55.599Z" fill="#3F5FFF"/>
<path d="M103.998 59.3227C103.998 63.4367 100.632 66.6944 96.6002 67.5061C89.4293 68.9642 82.8461 72.5007 77.6714 77.6747C72.4968 82.8487 68.9594 89.4314 67.5004 96.6021C66.6925 100.631 63.4385 104 59.3208 104H55.5977C55.5977 91.1552 60.6983 78.8318 69.7827 69.7846C78.867 60.7003 91.1905 55.5996 103.998 55.5996V59.3227Z" fill="#8D65C5"/>
</g>
<defs>
<clipPath id="clip0_366_2">
<rect width="100" height="100" fill="white"/>
</clipPath>
</defs>
</svg>
