<svg width="100" height="59" viewBox="0 0 100 59" fill="none" xmlns="http://www.w3.org/2000/svg">
<g clip-path="url(#clip0_333_207)">
<path d="M97.4713 28.5325C99.4888 26.5149 99.4979 23.2303 97.3453 21.3625C84.1998 9.97536 67.3917 3.70548 50 3.70134C32.6083 3.70548 15.8002 9.97537 2.6547 21.3625C0.502055 23.2303 0.511185 26.5149 2.52871 28.5325C2.52871 28.5325 3.6096 29.6791 4.35453 30.3583C23.5256 18.4905 31.0663 13.2869 48.1742 13.2686C65.3004 13.2686 81.9518 20.3163 95.6455 30.3583L97.4713 28.5325Z" fill="#F8312F"/>
<path d="M90.168 35.8358L95.6455 30.3583C89.6519 24.3626 82.536 19.6061 74.7041 16.3606C66.8722 13.115 58.4777 11.444 50 11.4429C32.8808 11.457 16.4658 18.2594 4.35454 30.3583L9.832 35.8358C18.9611 30.3583 34.937 22.8542 50 22.836C65.0447 22.836 75.5615 26.7067 90.168 35.8358Z" fill="#FFB02E"/>
<path d="M90.1641 35.836L84.6867 41.3134C74.6446 33.0973 62.9959 30.5776 49.9961 30.5776C36.978 30.5959 26.2604 34.0102 15.3055 41.3134L9.82808 35.836C20.4726 25.1915 34.9331 19.2028 49.9961 19.1845C65.0634 19.1909 79.5115 25.1803 90.1641 35.836Z" fill="#FFF478"/>
<path d="M50 38.3558C39.0451 38.3558 29.916 41.3136 20.7869 46.7911L15.3094 41.3136C24.5116 32.1115 36.9819 26.9444 50 26.9261C62.9998 26.9261 75.4884 32.1115 84.6906 41.3136L79.2131 46.7911C69.1711 40.4007 60.9549 38.3558 50 38.3558Z" fill="#00D26A"/>
<path d="M73.7356 52.2687L79.2131 46.7912C71.4716 39.0498 60.9549 34.7043 50 34.7043C39.0451 34.7043 28.5284 39.0498 20.7869 46.7912L26.2644 52.2687C32.5634 45.9696 41.1083 42.4275 50 42.4458C58.91 42.4458 67.4548 45.9879 73.7356 52.2687Z" fill="#3F5FFF"/>
<path d="M71.9098 54.0947C69.8923 56.1122 66.6442 56.0592 64.2688 54.4799C60.0371 51.6783 55.0744 50.1843 49.9994 50.1839C44.9243 50.1836 39.9614 51.6771 35.7294 54.4781C33.3577 56.0574 30.1095 56.114 28.0902 54.0947L26.2644 52.2688C32.5634 45.9698 41.1083 42.4277 50 42.4459C58.91 42.4459 67.4548 45.988 73.7356 52.2688L71.9098 54.0947Z" fill="#8D65C5"/>
</g>
<defs>
<clipPath id="clip0_333_207">
<rect width="100" height="59" fill="white"/>
</clipPath>
</defs>
</svg>
