<svg width="100" height="100" viewBox="0 0 100 100" fill="none" xmlns="http://www.w3.org/2000/svg">
<path d="M84.375 71.875C84.375 60.9766 77.9883 51.5625 68.75 47.1777V30.9863C68.75 29.5117 68.2324 28.0859 67.2754 26.9629L52.3926 9.31641C51.7676 8.57422 50.8789 8.20312 50 8.20312C49.1211 8.20312 48.2324 8.57422 47.6074 9.31641L32.7246 26.9629C31.7741 28.0882 31.2518 29.5133 31.25 30.9863V47.1777C22.0117 51.5625 15.625 60.9766 15.625 71.875H30.9082C30.6836 72.5781 30.5664 73.3398 30.5664 74.1992C30.5664 76.3574 31.3086 78.4668 32.6562 80.1367C33.7563 81.5025 35.2131 82.5368 36.8652 83.125C39.1211 88.3984 44.248 91.7969 50 91.7969C52.8418 91.7969 55.5957 90.957 57.9492 89.375C60.2539 87.832 62.041 85.6738 63.125 83.125C64.7764 82.5405 66.2334 81.5094 67.334 80.1465C68.6834 78.4614 69.4203 76.3678 69.4238 74.209C69.4238 73.3887 69.3164 72.6074 69.1211 71.8848H84.375V71.875ZM74.4434 60.6836C75.3613 62.1094 76.1035 63.6426 76.6406 65.2344H68.3594V54.5605C70.7958 56.1505 72.869 58.2371 74.4434 60.6836ZM37.8906 47.1777V31.1328L50 16.7773L62.1094 31.1328V65.2344H37.8906V47.1777ZM23.3594 65.2344C23.8965 63.6426 24.6387 62.1094 25.5566 60.6836C27.1484 58.2227 29.2188 56.1426 31.6406 54.5605V65.2344H23.3594ZM61.3379 76.582C60.8301 76.875 60.2441 76.9922 59.668 76.9141L57.7637 76.6797L57.4902 78.5742C56.9629 82.2754 53.7402 85.0684 50 85.0684C46.2598 85.0684 43.0371 82.2754 42.5098 78.5742L42.2363 76.6699L40.332 76.9141C39.7531 76.9831 39.1674 76.8632 38.6621 76.5723C37.8125 76.084 37.2852 75.1758 37.2852 74.1895C37.2852 73.1543 37.8613 72.2949 38.7109 71.8652H61.2988C62.1582 72.3047 62.7246 73.1641 62.7246 74.1895C62.7148 75.1855 62.1875 76.1035 61.3379 76.582ZM45.3125 39.0625C45.3125 40.3057 45.8064 41.498 46.6854 42.3771C47.5645 43.2561 48.7568 43.75 50 43.75C51.2432 43.75 52.4355 43.2561 53.3146 42.3771C54.1936 41.498 54.6875 40.3057 54.6875 39.0625C54.6875 37.8193 54.1936 36.627 53.3146 35.7479C52.4355 34.8689 51.2432 34.375 50 34.375C48.7568 34.375 47.5645 34.8689 46.6854 35.7479C45.8064 36.627 45.3125 37.8193 45.3125 39.0625Z" fill="#F3F1E5"/>
</svg>
